<svg width="60" height="60" viewBox="0 0 60 60" fill="none" xmlns="http://www.w3.org/2000/svg">
<rect width="60" height="60" rx="20" fill="#FFF5D9"/>
<path d="M41.6295 29.5459V22.1315C41.6295 20.6092 40.3909 19.3706 38.8686 19.3706H20.7608C19.2385 19.3706 18 20.6092 18 22.1315V33.3865C18 34.9088 19.2385 36.1474 20.7608 36.1474H27.9206C28.8763 39.3156 31.8212 41.6296 35.2969 41.6296C39.5444 41.6296 42.9999 38.1741 42.9999 33.9265C43 32.3002 42.493 30.7905 41.6295 29.5459ZM30.9164 27.5939H19.7007V25.183H39.9288V27.7757C38.6387 26.8018 37.0342 26.2235 35.2969 26.2235C33.6708 26.2234 32.1609 26.7304 30.9164 27.5939ZM20.7608 21.0713H38.8686C39.4532 21.0713 39.9288 21.5469 39.9288 22.1315V23.4823H19.7007V22.1315C19.7007 21.5469 20.1763 21.0713 20.7608 21.0713ZM20.7608 34.4467C20.1763 34.4467 19.7007 33.9711 19.7007 33.3865V29.2946H29.146C28.1721 30.5847 27.5939 32.1892 27.5939 33.9265C27.5939 34.1014 27.6003 34.2747 27.6118 34.4468H20.7608V34.4467ZM35.297 39.9289C31.9872 39.9289 29.2945 37.2362 29.2945 33.9264C29.2945 30.6167 31.9872 27.9241 35.297 27.9241C38.6066 27.9241 41.2993 30.6167 41.2993 33.9264C41.2993 37.2362 38.6066 39.9289 35.297 39.9289Z" fill="#FFBB38"/>
<path d="M31.1852 31.7056C30.7156 31.7056 30.3348 32.0863 30.3348 32.5559V35.297C30.3348 35.7666 30.7156 36.1473 31.1852 36.1473H39.4085C39.8781 36.1473 40.2588 35.7666 40.2588 35.297V32.5559C40.2588 32.0863 39.8781 31.7056 39.4085 31.7056H31.1852ZM38.5582 34.4467H32.0355V33.4063H38.5582V34.4467Z" fill="#FFBB38"/>
</svg>
